HIERARCHY
ROOT Hips
{
  OFFSET 1.44925e-005 102.336 -0.101585
  CHANNELS 6 Xposition Yposition Zposition Zrotation Xrotation Yrotation
  JOINT LeftUpLeg
  {
    OFFSET 8.9458 -8.66707 0.101652
    CHANNELS 3 Zrotation Xrotation Yrotation
    JOINT LeftLeg
    {
      OFFSET 0 -44.4227 1.3727
      CHANNELS 3 Zrotation Xrotation Yrotation
      JOINT LeftFoot
      {
        OFFSET -0.253549 -42.0924 -1.46059
        CHANNELS 3 Zrotation Xrotation Yrotation
        JOINT LeftToes
        {
          OFFSET -0.04 -4.41509 8.4991
          CHANNELS 3 Zrotation Xrotation Yrotation
          End Site
          {
            OFFSET 0.08 -0.047448 9.77979
          }
        }
      }
    }
  }
  JOINT Spine
  {
    OFFSET 0 11.8905 0
    CHANNELS 3 Zrotation Xrotation Yrotation
    JOINT Spine1
    {
      OFFSET 0 25.6574 0.127663
      CHANNELS 3 Zrotation Xrotation Yrotation
      JOINT RightShoulder
      {
        OFFSET -8.99 -0.362252 -0.22
        CHANNELS 3 Zrotation Xrotation Yrotation
        JOINT RightArm
        {
          OFFSET -10.2827 -0.00338 0.322123
          CHANNELS 3 Zrotation Xrotation Yrotation
          JOINT RightForeArm
          {
            OFFSET -26.364 0.099144 -1.42434
            CHANNELS 3 Zrotation Xrotation Yrotation
            JOINT RightHand
            {
              OFFSET -22.0324 0.085362 1.02216
              CHANNELS 3 Zrotation Xrotation Yrotation
              End Site
              {
                OFFSET -13.3284 -0.6 1.50291
              }
            }
          }
        }
      }
      JOINT LeftShoulder1
      {
        OFFSET 8.99 -0.362252 -0.22
        CHANNELS 3 Zrotation Xrotation Yrotation
        JOINT LeftArm
        {
          OFFSET 10.2827 -0.00337999 0.322123
          CHANNELS 3 Zrotation Xrotation Yrotation
          JOINT LeftForeArm
          {
            OFFSET 26.2597 0.099144 -1.42434
            CHANNELS 3 Zrotation Xrotation Yrotation
            JOINT LeftHand
            {
              OFFSET 22.0902 0.085362 1.02216
              CHANNELS 3 Zrotation Xrotation Yrotation
              End Site
              {
                OFFSET 13.419 -0.6 1.50291
              }
            }
          }
        }
      }
      JOINT Head
      {
        OFFSET 0 8.73416 0.011341
        CHANNELS 3 Zrotation Xrotation Yrotation
        End Site
        {
          OFFSET -0.29 12.7742 2.51395
        }
      }
    }
  }
  JOINT RightUpLeg
  {
    OFFSET -8.9458 -8.66707 0.101652
    CHANNELS 3 Zrotation Xrotation Yrotation
    JOINT RightLeg
    {
      OFFSET 0 -44.4227 1.3727
      CHANNELS 3 Zrotation Xrotation Yrotation
      JOINT RightFoot
      {
        OFFSET 0.253549 -42.0924 -1.46059
        CHANNELS 3 Zrotation Xrotation Yrotation
        JOINT RightToes
        {
          OFFSET 0.04 -4.41509 8.4991
          CHANNELS 3 Zrotation Xrotation Yrotation
          End Site
          {
            OFFSET -0.08 -0.137448 9.77979
          }
        }
      }
    }
  }
}
MOTION
Frames:	15
Frame Time:	0.0333333
34.9195 96.2771 3.36741 -8.58774 -2.54529 -89.4341 -7.60964 20.4589 4.56682 0.546947 18.4579 15.0576 -5.50272 -28.8506 -0.900203 -1.32838e-009 8.75231e-006 -1.4753e-008 -5.19606 16.7591 -1.87659 5.16827 -1.33132 -3.46134 38.2207 1.7798 0.029419 28.7424 -27.5109 -15.7594 10.3203 44.6267 0.145884 -8.00248 9.6213 -1.02788 -41.8824 3.30115 -3.32776 -27.2652 -20.6526 -17.8203 8.86676 31.9467 -45.8874 5.82328 9.61819 -0.917488 0.803121 -12.4897 -2.77442 -2.81972 -22.9181 -3.69675 1.21209 15.5219 -17.5169 12.1765 -12.1832 0.288358 0.0462048 0.000530889 0.662642 
30.0748 95.4781 3.12127 -8.15421 -1.86763 -88.4165 -6.33956 22.312 4.28975 1.02493 20.3743 14.2183 -7.99166 -28.9203 -1.39176 -1.32838e-009 8.75231e-006 -1.4753e-008 -3.79053 15.4845 -2.32387 5.57654 -0.725035 -3.78991 38.3586 1.77874 0.0073086 28.0941 -28.278 -16.4725 10.4341 44.7697 -0.625294 -7.8942 9.6267 -1.05142 -42.0565 3.32212 -3.34451 -27.0766 -19.5299 -17.4954 8.57016 31.8689 -45.231 5.82328 9.61819 -0.917488 0.465926 -12.5325 -3.12064 -1.55691 -23.4032 -4.73032 0.849221 18.6035 -17.7526 8.45434 -9.89814 -0.00516676 0.0462048 0.000530889 0.662642 
25.0375 94.7535 2.87713 -7.90157 -0.189797 -88.1688 -3.79377 23.3631 4.13086 0.9245 24.2897 13.3787 -11.7961 -28.0183 -2.03109 -1.32838e-009 8.75231e-006 -1.4753e-008 -0.73553 14.4233 -2.76736 5.18749 -0.511202 -3.70229 38.489 1.77829 -0.0114648 27.9006 -28.7224 -16.1305 10.643 45.299 -1.36124 -7.43351 9.65247 -1.202 -42.556 3.37646 -3.37986 -26.6735 -18.2037 -15.4491 8.1376 31.838 -43.9454 5.82328 9.61819 -0.917488 0.194929 -12.3409 -3.07978 0.930326 -24.6498 -6.47871 -0.420385 25.0398 -16.0928 3.30243 -6.56878 -0.1982 0.0462048 0.000530889 0.662642 
19.9939 94.2218 2.58293 -8.15582 1.49124 -88.863 -0.8751 22.8125 5.22611 0.815369 31.8246 11.5971 -15.1321 -23.5287 -2.04047 -1.32838e-009 8.75231e-006 -1.4753e-008 2.19764 14.1103 -2.95783 4.66396 -0.63932 -3.33518 38.4705 1.77907 -0.0093621 28.6295 -29.1639 -13.9783 11.0487 46.1182 -2.37586 -7.39774 9.65188 -1.17076 -43.1438 3.44311 -3.42559 -26.66 -17.0651 -12.0026 7.65469 31.9177 -42.0506 5.82328 9.61819 -0.917488 0.0441505 -12.2514 -2.50696 3.7698 -25.1787 -5.39607 -1.09276 31.6624 -15.8052 -1.04833 -6.00599 -0.157352 0.0462048 0.000530889 0.662642 
15.3041 94.0236 2.19016 -8.47304 2.73605 -89.1813 1.82473 19.0397 5.24433 0.986095 43.5232 10.9729 -15.5656 -13.6267 -0.782463 -1.32838e-009 8.75231e-006 -1.4753e-008 3.87535 14.2194 -3.09344 4.74077 -0.716074 -3.10921 38.3984 1.778 -0.00371936 30.4933 -29.6875 -10.1681 11.2395 46.2639 -2.8589 -8.08931 9.60427 -0.806379 -43.5956 3.49506 -3.46107 -27.2194 -15.4752 -8.37988 6.5405 31.6423 -38.9572 5.82328 9.61819 -0.917488 0.121996 -12.5362 -1.94368 5.81009 -24.4268 -3.96185 -1.11704 36.5777 -16.5228 -3.28475 -9.28104 -0.226674 0.0462048 0.000530889 0.662642 
11.2307 93.9667 1.79342 -8.50748 3.58923 -88.2148 4.03511 12.1538 3.27966 1.36436 56.901 12.0769 -14.0976 -3.05519 0.570269 -1.32838e-009 8.75231e-006 -1.4753e-008 5.41002 14.335 -3.43514 4.96753 -0.518924 -2.96994 38.3587 1.77257 -0.0127173 33.2048 -29.9291 -5.6672 10.7014 44.76 -1.60961 -8.84111 9.55219 -0.471468 -43.9896 3.53155 -3.47379 -27.9819 -12.0798 -5.87888 4.35794 30.3844 -34.0058 5.82328 9.61819 -0.917488 0.376273 -12.9877 -2.24459 6.93101 -23.0884 -4.19424 -1.20376 39.5968 -17.3451 -3.21128 -13.6712 -0.378653 0.0462048 0.000530889 0.662642 
7.46219 94.2316 1.50384 -8.56235 4.18401 -86.9855 5.22855 4.6879 1.28336 2.17727 68.3228 13.8098 -12.1588 0.90436 0.900196 -1.32838e-009 8.75231e-006 -1.4753e-008 7.53115 14.3769 -3.57681 4.31431 -0.22329 -2.38671 38.237 1.76418 -0.0216052 36.138 -29.2928 -1.0753 9.85815 41.9062 1.16898 -9.08338 9.54027 -0.450554 -44.5157 3.57077 -3.4716 -28.5392 -6.4098 -4.50839 1.65902 27.8906 -27.7383 5.82328 9.61819 -0.917488 0.580158 -13.1235 -3.52804 7.67411 -20.9342 -4.80427 -1.26004 40.6562 -18.1351 -2.05282 -16.5896 -0.396237 0.0462048 0.000530889 0.662642 
3.52995 95.1456 1.29114 -8.95133 4.09137 -86.8248 5.14714 -1.55459 0.833677 3.57691 75.7826 15.3212 -9.71295 -1.61214 0.514721 -1.32838e-009 8.75231e-006 -1.4753e-008 9.06035 14.3744 -2.99914 2.57295 -0.0787297 -1.19375 37.9298 1.75782 -0.0106916 38.6923 -26.7955 3.66791 9.22521 38.8405 4.48144 -9.11258 9.53604 -0.408458 -45.1 3.61072 -3.46191 -29.0213 -2.4878 -3.04045 -0.694055 27.1325 -21.6996 5.82328 9.61819 -0.917488 0.607064 -12.6597 -4.99084 7.94802 -17.1983 -4.60778 -1.26029 39.5814 -18.516 -1.15801 -18.1959 -0.35214 0.0462048 0.000530889 0.662642 
-0.445464 96.2859 1.11599 -9.38317 3.30298 -87.4024 4.25191 -6.98161 1.20417 5.04167 79.2548 15.8633 -8.16824 -5.67918 0.156391 -1.32838e-009 8.75231e-006 -1.4753e-008 9.69949 14.3037 -2.11816 0.497406 -0.0707473 0.13915 37.4907 1.75106 0.0103489 40.1261 -20.6522 8.28542 8.19932 34.8992 8.42877 -9.42806 9.48738 0.0698439 -45.4651 3.6261 -3.43739 -29.2868 -7.99069 -0.48334 -3.41845 34.4543 -16.294 5.82328 9.61819 -0.917488 0.430356 -11.6667 -5.938 7.51656 -12.7439 -4.19764 -1.2256 37.3857 -18.4085 -0.57634 -19.6876 -0.314794 0.0462048 0.000530889 0.662642 
-4.36558 97.2601 0.972144 -9.51154 2.38408 -87.8573 3.06591 -12.2753 1.11512 5.22638 79.4998 15.6404 -7.87168 -7.8927 0.0150622 -1.32838e-009 8.75231e-006 -1.4753e-008 10.1218 13.9538 -1.41577 -1.42253 -0.20594 1.2136 36.9642 1.73631 0.0206208 39.8787 -11.7501 12.2322 6.31791 29.2855 13.3195 -9.84451 9.42076 0.688315 -45.5545 3.61247 -3.39823 -28.5216 -14.967 3.15878 -6.38654 41.433 -11.2798 5.82328 9.61819 -0.917488 0.00346766 -10.4207 -6.41971 6.62011 -8.52148 -4.6111 -1.1265 34.8726 -17.7206 -0.137176 -21.0506 -0.279031 0.0462048 0.000530889 0.662642 
-8.31423 98.0796 0.837412 -9.50242 1.59406 -88.1064 1.85017 -16.9589 0.584018 4.01171 76.8585 15.2744 -7.82181 -9.27208 -0.0707715 -1.32838e-009 8.75231e-006 -1.4753e-008 10.4124 13.4589 -0.803697 -3.10682 -0.443962 2.01666 36.3076 1.71385 0.0240107 38.5581 -3.75379 15.6273 4.25772 22.9816 18.4958 -9.77032 9.40493 0.946442 -45.5474 3.59423 -3.36449 -26.8838 -19.2153 7.33497 -9.05189 44.7912 -7.01511 5.82328 9.61819 -0.917488 -0.618878 -9.26567 -6.72619 5.69406 -4.30978 -5.27088 -0.758231 31.9362 -17.0136 -0.00105327 -21.8739 -0.268205 0.0462048 0.000530889 0.662642 
-12.2354 98.7239 0.688719 -9.71317 0.847209 -88.3645 0.826431 -20.3641 0.244147 2.65737 71.3448 14.8772 -8.04542 -11.0472 -0.19113 -1.32838e-009 8.75231e-006 -1.4753e-008 10.2186 13.2053 -0.188673 -4.44911 -0.5606 2.61554 35.5838 1.6924 0.0354385 37.8178 -1.4639 18.8513 3.0112 20.0191 22.9965 -9.30801 9.43369 0.899393 -45.5247 3.58123 -3.34297 -25.0153 -21.3014 11.539 -10.9174 46.2601 -3.92461 5.82328 9.61819 -0.917488 -1.25072 -8.56581 -6.91766 4.87615 0.285009 -5.34192 -0.185707 28.5558 -16.8036 0.166757 -22.5991 -0.250054 0.0462048 0.000530889 0.662642 
-16.0679 99.0121 0.546566 -9.98434 0.2192 -88.5679 0.180324 -22.5241 0.347876 1.79058 63.0493 14.8272 -8.94207 -12.0949 -0.293246 -1.32838e-009 8.75231e-006 -1.4753e-008 9.80079 12.9878 0.340395 -5.50794 -0.345416 3.05206 34.9796 1.67511 0.046525 38.4774 -4.53312 22.0299 2.56697 21.1887 26.7537 -9.19128 9.446 0.816052 -45.4575 3.56156 -3.31517 -23.3617 -22.0519 15.3467 -12.06 47.261 -1.92013 5.82328 9.61819 -0.917488 -1.78578 -8.50605 -7.00072 4.18248 4.76438 -5.65569 0.246704 25.4139 -16.2815 0.714495 -23.7188 -0.176761 0.0462048 0.000530889 0.662642 
-19.8553 99.0272 0.41837 -9.8301 -0.202335 -88.7185 -0.105309 -23.6653 0.920347 1.32616 51.9822 14.9895 -9.75264 -11.6447 -0.289659 -1.32838e-009 8.75231e-006 -1.4753e-008 9.4729 12.2827 0.890837 -6.52998 0.179247 3.48367 34.5526 1.65755 0.0413015 39.1059 -7.22204 24.9679 2.28969 21.8664 30.0091 -9.58384 9.43153 0.727006 -45.3811 3.53637 -3.278 -22.0729 -21.798 18.5197 -12.8012 48.0693 -0.745198 5.82328 9.61819 -0.917488 -2.24654 -8.86244 -7.05354 3.66891 8.59066 -6.17212 0.688829 22.581 -15.5217 1.10962 -24.6692 -0.116983 0.0462048 0.000530889 0.662642 
-23.6067 98.9988 0.275168 -9.25724 -0.543673 -89.0311 -0.293427 -23.7201 2.07143 1.12348 38.4887 14.6849 -9.88175 -10.2837 -0.183236 -1.32838e-009 8.75231e-006 -1.4753e-008 8.8177 11.2883 1.58829 -7.44826 0.769401 4.00592 34.2211 1.64146 0.0310092 39.5636 -9.30297 27.4342 1.97905 22.398 32.5697 -9.93573 9.42483 0.57116 -45.3254 3.52212 -3.25873 -21.1587 -20.8919 21.3808 -12.9904 48.4286 -0.623069 5.82328 9.61819 -0.917488 -2.54089 -9.21601 -7.05709 3.2729 12.1293 -6.45815 1.01356 19.2475 -14.7411 1.04554 -25.0335 -0.125843 0.0462048 0.000530889 0.662642 
